# xmcd
#
# Track frame offsets:
#	150
#	16563
#	30177
#	48560
#	62362
#	80397
#	96585
#	119601
#	131571
#	143345
#	165992
#	184519
#	200680
#	225202
#	248944
#	267454
#	271668
#	289890
#	303953
#
# Disc length: 4298 seconds
#
# Revision: 1
# Processed by: cddbd v1.5.2PL0 Copyright (c) Steve Scherf et al.
# Submitted via: audiograbber 1.83.01
#
DISCID=f310c813
DTITLE=Kristin Hersh - "PBGH"
DYEAR=1900
DGENRE=
TTITLE0=In Shock
TTITLE1=Wild Vanilla
TTITLE2=DayGlo
TTITLE3=Under The Gun
TTITLE4=Nerve Endings
TTITLE5=Gazebo Tree
TTITLE6=Your Dirty Answer
TTITLE7=Winter
TTITLE8=Cuckoo
TTITLE9=Your Ghost
TTITLE10=Me And My Charms
TTITLE11=Sugarbaby
TTITLE12=Listerine
TTITLE13=The Thin Man
TTITLE14=White Bikini Sand
TTITLE15=(Encore Break)
TTITLE16=Sundrops
TTITLE17=The Letter
TTITLE18=Hook In Her Head
EXTD=
EXTT0=
EXTT1=
EXTT2=
EXTT3=
EXTT4=
EXTT5=
EXTT6=
EXTT7=
EXTT8=
EXTT9=
EXTT10=
EXTT11=
EXTT12=
EXTT13=
EXTT14=
EXTT15=
EXTT16=
EXTT17=
EXTT18=
PLAYORDER=
